P2
# Resultado de um CT Scan
128 99
218
0 0 0 0 0 0 0 0 0 0 0 0 0 0 0 0 0 0 0 0 0 0 0 0 0 0 0 0 0 0 0 0 0 0 0 0 0 0 0 0 0 0 0 0 0 0 0 0 0 0 0 0 0 0 0 0 0 0 0 0 0 0 0 0 0 0 0 0 0 0 0 0 0 0 0 0 0 0 0 0 0 0 0 0 0 0 0 0 0 0 0 0 0 0 0 0 2 0 0 0 0 0 0 0 0 0 0 0 0 0 0 0 0 0 0 0 0 0 0 0 0 0 0 0 0 0 0 0
0 0 0 0 0 0 0 0 0 0 0 0 0 0 0 0 0 0 0 0 0 0 0 0 0 0 0 0 0 0 0 0 0 0 0 0 0 0 0 0 0 0 0 0 0 0 0 0 0 0 0 0 0 0 0 0 0 0 0 0 0 0 0 0 0 0 0 0 0 0 0 0 0 0 0 0 0 0 0 0 0 0 0 0 0 0 0 0 0 0 0 0 0 0 0 0 2 0 0 0 0 0 0 0 0 0 0 0 0 0 0 0 0 0 0 0 0 0 0 0 0 0 0 0 0 0 0 0
0 0 0 0 0 0 0 0 0 0 0 0 0 0 0 0 0 0 0 0 0 0 0 0 0 0 0 0 0 0 0 0 0 0 0 0 0 0 0 0 0 0 0 0 0 0 0 0 0 0 0 1 2 2 0 0 0 0 0 0 0 0 0 0 0 0 0 0 0 0 0 0 0 0 0 0 0 0 0 0 0 0 0 0 0 0 0 0 0 0 0 0 0 0 0 0 2 0 0 0 0 0 0 0 0 0 0 0 0 0 0 0 0 0 0 0 0 0 0 0 0 0 0 0 0 0 0 0
0 0 0 0 0 0 0 0 0 0 0 0 0 0 0 0 0 0 0 0 0 0 0 0 0 0 0 0 0 0 0 0 0 0 0 0 0 0 0 0 0 0 0 0 6 13 16 17 17 18 21 24 27 27 25 20 18 15 14 11 3 0 0 0 0 0 0 0 0 0 0 0 0 0 0 0 0 0 0 0 0 0 0 0 0 0 0 0 0 0 0 0 0 0 0 0 2 0 0 0 0 0 0 0 0 0 0 0 0 0 0 0 0 0 0 0 0 0 0 0 0 0 0 0 0 0 0 0
0 0 0 0 0 0 0 0 0 0 0 0 0 0 0 0 0 0 0 0 0 0 0 0 0 0 0 0 0 0 0 0 0 0 0 0 0 0 0 0 5 13 19 23 24 33 53 78 102 124 141 152 157 158 154 144 127 105 79 54 33 21 16 10 1 0 0 0 0 0 0 0 0 0 0 0 0 0 0 0 0 0 0 0 0 0 0 0 0 0 0 0 0 0 0 0 2 0 0 0 0 0 0 0 0 0 0 0 0 0 0 0 0 0 0 0 0 0 0 0 0 0 0 0 0 0 0 0
0 0 0 0 0 0 0 0 0 0 0 0 0 0 0 0 0 0 0 0 0 0 0 0 0 0 0 0 0 0 0 0 0 0 0 0 0 0 8 16 23 24 36 67 113 153 177 188 193 196 197 195 193 193 194 195 194 191 185 175 155 121 79 44 23 16 10 1 0 0 0 0 0 0 0 0 0 0 0 0 0 0 0 0 0 0 0 0 0 0 0 0 0 0 0 0 2 0 0 0 0 0 0 0 0 0 0 0 0 0 0 0 0 0 0 0 0 0 0 0 0 0 0 0 0 0 0 0
0 0 0 0 0 0 0 0 0 0 0 0 0 0 0 0 0 0 0 0 0 0 0 0 0 0 0 0 0 0 0 0 0 0 0 0 8 21 23 25 52 104 156 184 195 196 197 198 200 203 205 206 206 206 206 206 205 202 198 195 194 190 180 161 125 77 39 18 13 1 0 0 0 0 0 0 0 0 0 0 0 0 0 0 0 0 0 0 0 0 0 0 0 0 0 0 2 0 0 0 0 0 0 0 0 0 0 0 0 0 0 0 0 0 0 0 0 0 0 0 0 0 0 0 0 0 0 0
0 0 0 0 0 0 0 0 0 0 0 0 0 0 0 0 0 0 0 0 0 0 0 0 0 0 0 0 0 0 0 0 0 0 7 24 24 26 62 127 174 191 196 198 200 203 201 195 188 184 187 195 193 179 177 190 204 211 209 204 202 198 196 195 191 179 153 102 49 22 13 1 0 0 0 0 0 0 0 0 0 0 0 0 0 0 0 0 0 0 0 0 0 0 0 0 2 0 0 0 0 0 0 0 0 0 0 0 0 0 0 0 0 0 0 0 0 0 0 0 0 0 0 0 0 0 0 0
0 0 0 0 0 0 0 0 0 0 0 0 0 0 0 0 0 0 0 0 0 0 0 0 0 0 0 0 0 0 0 0 4 27 25 22 58 131 177 190 192 195 200 203 200 191 181 170 161 158 159 161 158 151 153 158 167 185 206 214 212 207 203 200 197 195 194 187 161 104 45 23 10 0 0 0 0 0 0 0 0 0 0 0 0 0 0 0 0 0 0 0 0 0 0 0 2 0 0 0 0 0 0 0 0 0 0 0 0 0 0 0 0 0 0 0 0 0 0 0 0 0 0 0 0 0 0 0
0 0 0 0 0 0 0 0 0 0 0 0 0 0 0 0 0 0 0 0 0 0 0 0 0 0 0 0 0 0 0 23 25 21 40 114 175 188 189 193 198 203 199 183 169 165 159 149 142 139 143 150 151 147 152 154 156 158 171 191 210 215 214 211 206 201 198 197 195 187 152 81 30 18 2 0 0 0 0 0 0 0 0 0 0 0 0 0 0 0 0 0 0 0 0 0 2 0 0 0 0 0 0 0 0 0 0 0 0 0 0 0 0 0 0 0 0 0 0 0 0 0 0 0 0 0 0 0
0 0 0 0 0 0 0 0 0 0 0 0 0 0 0 0 0 0 0 0 0 0 0 0 0 0 0 0 0 10 28 22 25 84 162 187 190 192 197 203 205 193 175 171 165 155 148 141 137 137 140 144 143 142 145 150 150 148 152 160 176 197 210 217 216 212 207 203 198 198 196 180 123 45 22 5 0 0 0 0 0 0 0 0 0 0 0 0 0 0 0 0 0 0 0 0 2 0 0 0 0 0 0 0 0 0 0 0 0 0 0 0 0 0 0 0 0 0 0 0 0 0 0 0 0 0 0 0
0 0 0 0 0 0 0 0 0 0 0 0 0 0 0 0 0 0 0 0 0 0 0 0 0 0 0 0 22 24 18 48 135 182 187 193 199 202 207 202 187 176 167 160 156 154 152 147 145 141 134 136 133 132 144 150 152 152 152 155 162 173 190 203 213 218 215 211 207 203 200 198 190 155 69 23 10 0 0 0 0 0 0 0 0 0 0 0 0 0 0 0 0 0 0 0 2 0 0 0 0 0 0 0 0 0 0 0 0 0 0 0 0 0 0 0 0 0 0 0 0 0 0 0 0 0 0 0
0 0 0 0 0 0 0 0 0 0 0 0 0 0 0 0 0 0 0 0 0 0 0 0 0 0 4 25 20 18 77 162 184 191 197 203 207 208 195 180 173 168 163 161 156 154 154 150 150 142 132 131 129 130 140 148 148 150 153 155 157 165 176 184 195 206 214 217 215 210 205 201 197 190 167 86 24 12 0 0 0 0 0 0 0 0 0 0 0 0 0 0 0 0 0 0 2 0 0 0 0 0 0 0 0 0 0 0 0 0 0 0 0 0 0 0 0 0 0 0 0 0 0 0 0 0 0 0
0 0 0 0 0 0 0 0 0 0 0 0 0 0 0 0 0 0 0 0 0 0 0 0 0 10 25 18 25 103 172 185 195 202 207 211 204 188 176 171 170 166 160 155 150 150 151 151 143 138 129 128 125 126 129 140 149 152 155 157 157 160 165 172 179 186 195 206 214 217 213 207 201 194 190 172 96 26 13 0 0 0 0 0 0 0 0 0 0 0 0 0 0 0 0 0 2 0 0 0 0 0 0 0 0 0 0 0 0 0 0 0 0 0 0 0 0 0 0 0 0 0 0 0 0 0 0 0
0 0 0 0 0 0 0 0 0 0 0 0 0 0 0 0 0 0 0 0 0 0 0 0 14 22 16 34 120 174 186 198 205 211 207 194 179 175 174 170 165 160 157 154 151 150 141 133 132 127 123 122 119 123 125 126 135 147 150 150 151 153 157 163 167 172 177 182 191 203 212 214 209 202 195 192 176 107 30 13 0 0 0 0 0 0 0 0 0 0 0 0 0 0 0 0 3 0 0 0 0 0 0 0 0 0 0 0 0 0 0 0 0 0 0 0 0 0 0 0 0 0 0 0 0 0 0 0
0 0 0 0 0 0 0 0 0 0 0 0 0 0 0 0 0 0 0 0 0 0 3 18 20 15 44 132 172 187 199 207 210 198 183 175 174 174 169 163 158 153 149 143 140 132 128 127 122 122 119 116 114 122 126 125 123 127 137 146 146 146 149 155 161 163 167 168 172 179 191 205 211 209 202 195 191 179 120 35 11 0 0 0 0 0 0 0 0 0 0 0 0 0 0 0 3 0 0 0 0 0 0 0 0 0 0 0 0 0 0 0 0 0 0 0 0 0 0 0 0 0 0 0 0 0 0 0
0 0 0 0 0 0 0 0 0 0 0 0 0 0 0 0 0 0 0 0 0 5 17 16 15 57 142 171 188 200 209 206 187 176 171 170 168 165 161 156 152 148 144 139 129 122 121 116 119 119 120 118 116 121 123 124 123 125 126 129 132 134 137 142 150 154 156 162 166 169 172 178 195 208 209 203 197 192 178 128 38 8 0 0 0 0 0 0 0 0 0 0 0 0 0 0 2 0 0 0 0 0 0 0 0 0 0 0 0 0 0 0 0 0 0 0 0 0 0 0 0 0 0 0 0 0 0 0
0 0 0 0 0 0 0 0 0 0 0 0 0 0 0 0 0 0 0 0 6 16 14 18 71 151 171 188 203 210 200 176 168 168 168 162 155 150 149 149 147 144 137 128 122 119 114 116 118 117 117 113 113 122 121 123 124 125 126 128 130 131 132 135 139 141 145 149 152 156 160 164 169 186 201 206 203 198 190 179 133 36 6 0 0 0 0 0 0 0 0 0 0 0 0 0 2 0 0 0 0 0 0 0 0 0 0 0 0 0 0 0 0 0 0 0 0 0 0 0 0 0 0 0 0 0 0 0
0 0 0 0 0 0 0 0 0 0 0 0 0 0 0 0 0 0 0 5 15 13 19 80 154 171 186 201 208 196 171 163 164 162 156 149 146 146 142 137 133 127 125 122 122 120 118 120 120 117 118 110 111 120 120 120 122 123 123 125 127 129 130 130 128 129 134 142 148 147 147 151 159 164 178 197 206 203 199 188 177 125 29 3 0 0 0 0 0 0 0 0 0 0 0 0 2 0 0 0 0 0 0 0 0 0 0 0 0 0 0 0 0 0 0 0 0 0 0 0 0 0 0 0 0 0 0 0
0 0 0 0 0 0 0 0 0 0 0 0 0 0 0 0 0 0 4 15 13 19 85 155 170 183 198 206 190 168 163 159 156 153 147 141 138 136 133 127 125 121 120 121 118 114 113 115 115 116 111 104 107 120 120 119 119 120 121 122 121 123 123 125 127 124 128 134 142 147 144 143 149 154 160 173 193 205 204 196 185 172 109 19 1 0 0 0 0 0 0 0 0 0 0 0 2 0 0 0 0 0 0 0 0 0 0 0 0 0 0 0 0 0 0 0 0 0 0 0 0 0 0 0 0 0 0 0
0 0 0 0 0 0 0 0 0 0 0 0 0 0 0 0 0 1 14 12 18 82 151 166 179 195 206 187 167 160 157 151 148 145 138 134 133 130 123 122 119 117 116 113 113 114 115 115 117 113 105 105 107 118 120 120 121 120 120 122 122 118 116 115 119 124 125 130 135 137 142 141 142 148 154 157 168 188 205 201 193 180 162 84 10 0 0 0 0 0 0 0 0 0 0 0 3 0 0 0 0 0 0 0 0 0 0 0 0 0 0 0 0 0 0 0 0 0 0 0 0 0 0 0 0 0 0 0
0 0 0 0 0 0 0 0 0 0 0 0 0 0 0 0 0 10 11 16 74 145 161 173 189 202 186 165 160 154 148 146 145 140 132 129 127 122 119 118 113 110 111 116 117 115 112 110 110 100 99 103 104 107 111 114 117 116 117 119 121 119 117 113 111 115 123 126 129 132 132 134 135 138 147 152 157 164 190 205 201 190 174 145 54 3 0 0 0 0 0 0 0 0 0 0 3 0 0 0 0 0 0 0 0 0 0 0 0 0 0 0 0 0 0 0 0 0 0 0 0 0 0 0 0 0 0 0
0 0 0 0 0 0 0 0 0 0 0 0 0 0 0 0 5 12 14 60 136 154 169 185 199 187 161 158 151 144 143 140 135 131 126 124 121 118 117 112 111 113 116 114 111 106 104 103 100 97 99 103 105 108 108 107 110 111 109 109 112 115 115 112 107 104 111 124 124 128 128 130 129 132 136 145 149 152 161 192 205 198 184 165 119 25 1 0 0 0 0 0 0 0 0 0 3 0 0 0 0 0 0 0 0 0 0 0 0 0 0 0 0 0 0 0 0 0 0 0 0 0 0 0 0 0 0 0
0 0 0 0 0 0 0 0 0 0 0 0 0 0 0 1 11 12 47 125 149 162 178 195 189 161 155 148 143 144 137 132 130 130 125 120 115 114 112 112 111 107 104 102 102 103 104 106 105 104 108 108 107 108 106 104 106 107 107 107 108 110 113 113 110 107 105 111 121 124 124 124 125 128 132 139 150 147 148 163 197 202 191 176 152 80 6 0 0 0 0 0 0 0 0 0 3 0 0 0 0 0 0 0 0 0 0 0 0 0 0 0 0 0 0 0 0 0 0 0 0 0 0 0 0 0 0 0
0 0 0 0 0 0 0 0 0 0 0 0 0 0 0 7 10 26 104 140 156 172 190 190 167 153 148 141 143 142 133 128 128 123 118 113 113 113 111 109 105 101 103 104 102 103 104 106 106 105 109 106 102 103 100 100 100 101 102 106 107 106 110 111 113 112 106 106 114 117 120 121 124 124 129 136 147 146 143 148 173 198 195 183 165 125 30 1 0 0 0 0 0 0 0 0 3 0 0 0 0 0 0 0 0 0 0 0 0 0 0 0 0 0 0 0 0 0 0 0 0 0 0 0 0 0 0 0
0 0 0 0 0 0 0 0 0 0 0 0 0 0 2 8 13 75 133 148 163 182 185 174 152 144 138 139 143 138 131 126 121 119 115 111 114 110 107 105 103 102 103 103 101 100 103 104 101 101 109 108 104 108 103 102 101 102 100 101 103 107 107 107 109 113 109 105 107 113 114 123 122 124 126 132 141 144 139 139 151 183 193 186 170 146 69 3 0 0 0 0 0 0 0 0 3 0 0 0 0 0 0 0 0 0 0 0 0 0 0 0 0 0 0 0 0 0 0 0 0 0 0 0 0 0 0 0
0 0 0 0 0 0 0 0 0 0 0 0 0 0 5 8 40 116 139 155 174 181 170 161 142 135 136 142 140 134 128 123 118 115 113 110 108 108 108 105 103 102 100 100 100 101 104 105 103 106 115 116 111 111 103 104 107 106 104 100 97 100 104 105 105 108 110 108 105 108 109 117 123 121 124 132 139 143 139 132 139 166 185 187 176 157 109 16 0 0 0 0 0 0 0 0 3 0 0 0 0 0 0 0 0 0 0 0 0 0 0 0 0 0 0 0 0 0 0 0 0 0 0 0 0 0 0 0
0 0 0 0 0 0 0 0 0 0 0 0 0 0 7 15 85 128 147 163 180 167 164 148 133 132 136 140 136 132 123 115 113 115 112 108 107 109 107 103 100 98 98 99 99 102 105 105 105 104 108 112 111 102 92 93 97 105 105 102 98 98 98 103 107 109 110 111 109 106 108 112 122 122 125 130 137 141 139 129 131 157 176 184 180 162 132 39 1 0 0 0 0 0 0 0 3 0 0 0 0 0 0 0 0 0 0 0 0 0 0 0 0 0 0 0 0 0 0 0 0 0 0 0 0 0 0 0
0 0 0 0 0 0 0 0 0 0 0 0 0 2 6 37 113 137 152 172 175 162 156 138 130 130 134 137 133 127 119 116 115 115 110 108 110 106 101 100 99 96 96 98 100 102 104 105 102 99 100 104 111 100 95 95 96 98 95 100 102 102 100 99 105 110 109 111 113 108 106 109 118 121 123 133 136 135 134 128 125 150 167 183 181 167 143 61 2 0 0 0 0 0 0 0 3 0 0 0 0 0 0 0 0 0 0 0 0 0 0 0 0 0 0 0 0 0 0 0 0 0 0 0 0 0 0 0
0 0 0 0 0 0 0 0 0 0 0 0 0 4 8 69 125 141 156 176 160 153 147 130 129 127 131 133 128 123 119 117 118 114 107 110 109 104 101 100 99 100 99 100 101 103 102 104 104 102 99 99 105 99 94 94 93 95 96 98 97 101 102 102 104 107 110 112 115 114 108 109 116 117 122 132 137 126 129 128 121 142 161 179 182 168 149 82 5 0 0 0 0 0 0 0 3 0 0 0 0 0 0 0 0 0 0 0 0 0 0 0 0 0 0 0 0 0 0 0 0 0 0 0 0 0 0 0
0 0 0 0 0 0 0 0 0 0 0 0 0 5 16 96 130 147 165 169 146 146 139 124 126 124 129 128 121 120 119 121 120 113 112 112 107 102 99 100 105 104 102 100 104 102 100 101 101 96 92 91 100 93 89 86 89 89 93 97 97 100 102 105 105 107 111 113 113 115 114 111 116 116 118 129 133 124 124 126 122 135 155 177 182 170 152 100 10 0 0 0 0 0 0 0 3 0 0 0 0 0 0 0 0 0 0 0 0 0 0 0 0 0 0 0 0 0 0 0 0 0 0 0 0 0 0 0
0 0 0 0 0 0 0 0 0 0 0 0 0 5 33 115 136 154 168 151 136 140 135 124 120 122 124 123 117 116 119 121 121 117 111 108 104 99 102 105 104 102 102 103 99 96 94 94 93 96 96 93 99 93 91 89 95 95 92 92 96 100 100 105 109 108 113 115 113 114 116 116 115 118 118 125 127 123 119 119 120 135 158 173 182 173 156 116 16 0 0 0 0 0 0 0 3 0 0 0 0 0 0 0 0 0 0 0 0 0 0 0 0 0 0 0 0 0 0 0 0 0 0 0 0 0 0 0
0 0 0 0 0 0 0 0 0 0 0 0 1 6 50 121 140 158 161 139 132 136 136 122 116 119 121 119 114 114 120 121 121 115 107 108 103 102 103 102 100 102 100 98 96 92 91 90 92 94 93 93 92 89 85 84 84 86 90 95 97 99 103 105 111 115 112 117 117 114 116 116 116 117 120 124 123 118 117 114 116 132 153 167 182 176 160 129 25 0 0 0 0 0 0 0 3 0 0 0 0 0 0 0 0 0 0 0 0 0 0 0 0 0 0 0 0 0 0 0 0 0 0 0 0 0 0 0
0 0 0 0 0 0 0 0 0 0 0 0 2 7 64 127 147 162 155 136 131 135 136 121 113 115 117 117 112 113 120 123 119 113 108 106 107 106 104 100 100 101 94 92 92 89 91 90 91 92 96 98 96 93 92 90 90 90 87 92 97 95 99 101 106 110 109 111 118 116 116 118 117 119 118 123 118 111 114 113 117 133 155 169 183 181 165 140 37 1 0 0 0 0 0 0 3 0 0 0 0 0 0 0 0 0 0 0 0 0 0 0 0 0 0 0 0 0 0 0 0 0 0 0 0 0 0 0
0 0 0 0 0 0 0 0 0 0 0 0 2 8 74 131 150 160 153 140 133 134 134 123 115 113 114 112 107 112 123 123 117 109 105 110 110 108 111 106 103 100 92 90 88 91 87 89 91 91 96 100 98 95 92 91 87 88 88 90 91 95 97 98 99 105 107 112 124 124 119 118 119 120 120 122 113 110 111 109 115 138 155 169 183 183 170 150 50 2 0 0 0 0 0 0 3 0 0 0 0 0 0 0 0 0 0 0 0 0 0 0 0 0 0 0 0 0 0 0 0 0 0 0 0 0 0 0
0 0 0 0 0 0 0 0 0 0 0 0 3 10 82 136 156 164 153 144 137 135 135 125 117 111 111 107 106 114 126 121 114 109 110 114 114 114 117 118 114 106 96 95 92 90 95 94 89 93 97 98 99 93 90 88 84 84 90 92 89 94 93 92 102 109 112 121 123 124 125 125 123 120 123 129 116 112 108 107 118 141 153 166 185 185 174 158 62 3 0 0 0 0 0 0 3 0 0 0 0 0 0 0 0 0 0 0 0 0 0 0 0 0 0 0 0 0 0 0 0 0 0 0 0 0 0 0
0 0 0 0 0 0 0 0 0 0 0 0 3 11 87 140 160 168 155 148 140 138 137 128 121 113 109 106 105 114 127 120 113 114 119 117 112 104 98 95 93 93 99 101 98 96 95 97 95 97 101 100 103 93 89 91 87 85 91 88 89 92 99 103 99 94 94 97 102 109 114 121 132 132 126 132 129 117 109 111 125 141 151 162 183 188 176 160 77 4 0 0 0 0 0 0 3 0 0 0 0 0 0 0 0 0 0 0 0 0 0 0 0 0 0 0 0 0 0 0 0 0 0 0 0 0 0 0
0 0 0 0 0 0 0 0 0 0 0 0 4 12 90 144 162 169 152 150 145 143 139 131 125 114 109 101 104 119 129 121 123 123 114 109 99 88 81 83 83 82 82 88 95 104 101 94 94 99 103 102 108 99 94 91 85 85 86 83 92 102 100 95 93 88 91 90 91 97 103 107 116 126 135 138 142 129 113 119 128 140 147 155 177 189 179 163 92 6 0 0 0 0 0 0 3 0 0 0 0 0 0 0 0 0 0 0 0 0 0 0 0 0 0 0 0 0 0 0 0 0 0 0 0 0 0 0
0 0 0 0 0 0 0 0 0 0 0 0 5 13 94 147 165 167 153 149 144 142 141 139 132 119 111 101 105 125 130 129 129 113 101 93 89 84 82 86 85 83 84 84 88 95 103 101 93 96 101 104 108 107 102 96 89 87 83 89 102 92 89 88 89 92 93 94 95 101 103 102 104 112 130 150 148 142 126 126 131 136 140 149 165 187 182 166 105 9 0 0 0 0 0 0 3 0 0 0 0 0 0 0 0 0 0 0 0 0 0 0 0 0 0 0 0 0 0 0 0 0 0 0 0 0 0 0
0 0 0 0 0 0 0 0 0 0 0 0 6 14 96 150 164 168 151 147 142 138 137 140 137 124 117 113 111 130 137 137 112 95 93 91 89 86 86 88 87 85 85 88 91 94 94 101 94 96 100 106 112 114 113 104 96 89 81 99 95 87 84 85 89 92 94 96 97 101 107 110 111 116 126 150 154 146 137 131 128 131 133 143 155 180 183 168 120 15 0 0 0 0 0 0 3 0 0 0 0 0 0 0 0 0 0 0 0 0 0 0 0 0 0 0 0 0 0 0 0 0 0 0 0 0 0 0
0 0 0 0 0 0 0 0 0 0 0 0 7 14 97 151 168 169 146 142 139 137 133 133 134 129 120 123 131 132 143 130 100 94 91 86 84 83 85 85 86 86 85 86 89 91 96 99 99 95 104 113 120 114 120 105 95 89 86 102 88 81 80 85 93 97 98 101 100 106 109 108 116 127 132 134 146 143 145 133 127 126 127 135 147 171 182 168 131 23 0 0 0 0 0 0 3 0 0 0 0 0 0 0 0 0 0 0 0 0 0 0 0 0 0 0 0 0 0 0 0 0 0 0 0 0 0 0
0 0 0 0 0 0 0 0 0 0 0 0 7 15 100 154 170 170 136 136 137 133 131 128 131 130 122 121 136 142 147 126 110 100 96 91 88 88 86 85 86 89 88 86 88 91 98 102 101 96 103 114 123 115 122 108 97 88 95 100 82 78 83 90 95 97 96 99 101 103 109 110 116 120 121 124 132 143 147 133 125 123 124 125 136 161 181 169 137 34 0 0 0 0 0 0 3 0 0 0 0 0 0 0 0 0 0 0 0 0 0 0 0 0 0 0 0 0 0 0 0 0 0 0 0 0 0 0
0 0 0 0 0 0 0 0 0 0 0 0 7 16 101 155 171 171 134 136 135 130 125 123 124 122 117 124 135 136 138 127 118 109 101 97 96 91 88 88 89 93 91 89 90 92 96 101 98 97 107 117 117 112 115 114 104 99 100 90 79 82 88 91 93 94 95 96 98 102 108 110 112 114 116 120 125 140 141 131 122 116 115 118 124 150 178 169 141 43 1 0 0 0 0 0 3 0 0 0 0 0 0 0 0 0 0 0 0 0 0 0 0 0 0 0 0 0 0 0 0 0 0 0 0 0 0 0
0 0 0 0 0 0 0 0 0 0 0 0 8 16 104 158 174 169 131 134 132 125 118 115 117 118 116 123 128 128 126 117 109 106 98 94 91 89 88 84 85 87 90 93 92 92 92 96 101 98 105 106 105 112 110 113 109 105 97 84 82 85 88 90 91 91 90 92 96 101 103 106 111 112 113 113 124 137 137 128 117 113 110 115 116 138 171 168 144 51 2 0 0 0 0 0 3 0 0 0 0 0 0 0 0 0 0 0 0 0 0 0 0 0 0 0 0 0 0 0 0 0 0 0 0 0 0 0
0 0 0 0 0 0 0 0 0 0 0 0 7 17 104 159 174 163 125 126 123 116 108 107 111 112 113 126 126 121 120 112 100 102 95 91 87 87 87 84 83 85 86 90 90 90 91 90 95 94 109 108 103 106 105 114 110 110 100 86 85 86 90 86 83 86 88 90 92 99 103 104 107 108 106 111 124 135 132 130 122 111 104 109 108 126 157 166 147 58 2 0 0 0 0 0 3 0 0 0 0 0 0 0 0 0 0 0 0 0 0 0 0 0 0 0 0 0 0 0 0 0 0 0 0 0 0 0
0 0 0 0 0 0 0 0 0 0 0 0 8 17 102 159 175 157 118 117 116 110 100 102 104 104 107 123 127 121 117 111 101 98 92 87 86 84 85 82 84 86 85 86 86 87 92 87 86 97 115 120 110 100 103 97 117 107 97 89 90 91 90 78 79 86 88 91 94 97 102 102 104 106 104 110 124 132 127 135 133 110 103 110 109 123 139 156 149 63 2 0 0 0 0 0 3 0 0 0 0 0 0 0 0 0 0 0 0 0 0 0 0 0 0 0 0 0 0 0 0 0 0 0 0 0 0 0
0 0 0 0 0 0 0 0 0 0 0 0 7 16 100 158 174 148 118 112 109 106 98 103 102 100 109 119 122 119 116 110 104 97 92 90 88 86 87 85 83 84 88 91 91 91 93 85 82 94 114 121 100 90 95 84 104 111 89 94 90 88 83 79 84 87 90 92 93 97 100 100 101 101 103 113 127 134 135 138 136 111 102 107 110 122 134 155 148 64 2 0 0 0 0 0 3 0 0 0 0 0 0 0 0 0 0 0 0 0 0 0 0 0 0 0 0 0 0 0 0 0 0 0 0 0 0 0
0 0 0 0 0 0 0 0 0 0 0 0 7 16 95 155 172 138 117 107 109 108 98 103 104 102 112 114 119 117 118 112 105 98 92 91 88 88 88 88 86 82 82 86 87 89 91 82 81 99 114 105 82 78 88 79 86 120 85 91 90 85 80 86 87 89 91 92 95 97 99 97 102 100 103 119 136 140 132 135 136 111 103 104 109 118 134 159 142 62 2 0 0 0 0 0 3 0 0 0 0 0 0 0 0 0 0 0 0 0 0 0 0 0 0 0 0 0 0 0 0 0 0 0 0 0 0 0
0 0 0 0 0 0 0 0 0 0 0 0 5 14 86 154 169 134 115 106 107 107 99 101 101 102 112 113 114 114 120 112 103 103 94 88 89 91 90 89 86 85 81 80 83 86 87 80 86 102 109 88 82 80 87 77 78 111 103 88 87 82 81 89 88 88 91 93 96 96 96 96 100 98 102 120 142 135 126 134 133 109 104 103 108 116 134 157 137 56 2 0 0 0 0 0 3 0 0 0 0 0 0 0 0 0 0 0 0 0 0 0 0 0 0 0 0 0 0 0 0 0 0 0 0 0 0 0
0 0 0 0 0 0 0 0 0 0 0 0 4 14 80 150 168 136 118 108 104 106 100 98 99 98 110 116 113 112 118 116 102 102 95 92 92 93 92 91 87 86 83 80 82 84 84 74 87 105 105 85 83 87 94 81 78 90 114 92 85 79 81 88 89 90 92 94 94 92 93 95 98 97 103 119 136 129 123 133 131 108 105 103 106 113 136 153 131 50 1 0 0 0 0 0 3 0 0 0 0 0 0 0 0 0 0 0 0 0 0 0 0 0 0 0 0 0 0 0 0 0 0 0 0 0 0 0
0 0 0 0 0 0 0 0 0 0 0 0 2 14 73 145 164 141 118 108 102 105 100 100 99 94 105 115 115 113 117 115 100 99 95 92 93 93 94 94 89 85 81 80 79 81 78 77 91 106 92 84 83 94 101 86 82 78 107 99 96 88 83 89 90 91 92 91 91 90 92 95 95 96 103 120 128 127 125 131 128 106 106 102 104 112 140 148 121 44 1 0 0 0 0 0 3 0 0 0 0 0 0 0 0 0 0 0 0 0 0 0 0 0 0 0 0 0 0 0 0 0 0 0 0 0 0 0
0 0 0 0 0 0 0 0 0 5 4 0 0 12 64 137 158 143 118 107 100 103 101 100 98 92 101 116 117 117 118 112 100 97 96 92 92 92 92 92 90 89 84 80 86 96 91 87 96 100 89 84 85 100 102 90 85 80 90 109 112 109 102 96 92 94 98 95 91 91 92 96 93 95 105 119 124 123 127 133 125 106 103 99 101 113 142 142 109 38 1 0 0 0 0 0 3 0 0 0 0 0 0 0 0 0 0 0 0 0 0 0 0 0 0 0 0 0 0 0 0 0 0 0 0 0 0 0
0 0 0 0 0 0 0 0 0 2 8 3 0 8 53 129 156 143 117 108 97 101 103 100 97 91 103 119 119 115 115 113 99 94 96 95 93 89 90 92 97 99 96 88 91 95 97 90 103 94 89 85 86 97 97 92 88 86 86 121 121 125 114 103 97 92 94 98 94 89 88 92 93 95 104 120 122 121 127 136 129 108 99 96 100 113 142 135 101 33 1 0 0 0 0 0 3 0 0 0 0 0 0 0 0 0 0 0 0 0 0 0 0 0 0 0 0 0 0 0 0 0 0 0 0 0 0 0
0 0 0 0 0 0 0 0 0 1 5 9 3 7 41 119 151 141 113 105 95 96 105 103 99 92 102 119 118 118 121 116 101 94 94 93 90 90 91 94 98 98 93 96 105 111 102 95 108 86 86 83 84 101 95 87 89 88 95 125 126 118 109 111 112 109 105 101 95 90 90 93 97 100 106 124 127 123 126 135 136 119 97 96 102 120 143 130 93 26 0 0 0 0 0 0 3 0 0 0 0 0 0 0 0 0 0 0 0 0 0 0 0 0 0 0 0 0 0 0 0 0 0 0 0 0 0 0
0 0 0 0 0 0 0 0 0 0 2 9 3 7 31 104 146 144 114 104 101 97 103 102 101 94 104 117 117 121 127 127 117 101 95 93 92 95 100 103 104 100 101 106 100 101 93 102 108 87 85 84 84 105 93 86 85 84 91 122 136 116 106 108 114 127 137 136 127 122 124 119 122 126 133 139 126 119 130 137 139 131 102 100 108 131 143 121 86 17 0 0 0 6 4 0 3 0 0 0 0 0 0 0 0 0 0 0 0 0 0 0 0 0 0 0 0 0 0 0 0 0 0 0 0 0 0 0
0 0 0 0 0 0 0 0 0 0 2 8 5 6 24 92 141 149 120 109 108 96 98 103 101 100 106 115 118 121 128 126 127 127 117 110 110 114 116 115 111 104 90 91 101 97 92 104 109 81 84 87 87 102 92 80 82 83 90 123 134 110 105 106 109 120 144 151 144 148 153 146 138 127 131 136 137 130 131 137 140 131 117 114 108 140 134 115 79 11 3 2 5 2 1 0 3 0 0 0 0 0 0 0 0 0 0 0 0 0 0 0 0 0 0 0 0 0 0 0 0 0 0 0 0 0 0 0
0 0 0 0 0 0 0 0 0 0 1 7 5 7 19 82 133 154 136 112 107 97 93 102 108 113 109 118 119 120 121 121 117 120 126 127 126 119 116 113 111 103 98 103 102 95 97 103 111 89 86 93 90 106 93 81 83 91 101 130 130 115 106 104 108 123 141 146 145 153 149 142 135 125 131 126 141 147 141 137 140 132 128 129 144 143 121 114 68 7 2 2 4 0 0 0 3 0 0 0 0 0 0 0 0 0 0 0 0 0 0 0 0 0 0 0 0 0 0 0 0 0 0 0 0 0 0 0
0 0 0 0 0 0 0 0 0 0 0 6 7 8 13 68 123 151 151 118 107 99 96 109 122 116 117 122 121 119 123 129 130 128 125 126 124 123 122 119 112 103 97 95 96 95 97 103 113 102 89 89 93 109 97 84 90 97 104 116 114 116 114 113 120 130 141 146 143 149 140 140 146 148 147 147 153 156 160 156 152 147 148 153 164 139 115 110 53 5 1 2 2 0 0 0 3 0 0 0 0 0 0 0 0 0 0 0 0 0 0 0 0 0 0 0 0 0 0 0 0 0 0 0 0 0 0 0
0 0 0 0 0 0 0 0 0 0 0 6 8 9 12 55 116 147 153 133 112 114 117 117 126 125 128 132 128 121 135 142 146 152 152 140 139 137 126 110 101 92 93 89 87 90 97 112 114 94 95 96 89 108 95 85 88 99 106 106 111 107 115 117 124 136 150 155 156 152 150 151 152 147 136 146 145 152 164 166 172 177 173 177 181 128 121 104 32 5 2 1 1 0 0 0 3 0 0 0 0 0 0 0 0 0 0 0 0 0 0 0 0 0 0 0 0 0 0 0 0 0 0 0 0 0 0 0
0 0 0 0 0 0 0 0 0 0 0 7 10 7 8 37 109 145 152 148 136 146 137 136 139 140 143 137 131 130 139 148 154 160 159 147 147 144 131 112 106 99 93 87 87 91 106 111 99 89 88 94 95 117 99 85 82 92 102 102 107 112 113 119 120 123 132 142 148 154 152 143 134 133 134 142 142 148 161 171 175 183 187 180 161 124 120 86 16 5 3 1 1 0 0 0 3 0 0 0 0 0 0 0 0 0 0 0 0 0 0 0 0 0 0 0 0 0 0 0 0 0 0 0 0 0 0 0
0 0 0 0 0 0 0 0 0 0 0 3 11 6 6 11 61 130 148 149 154 170 176 159 157 154 144 138 138 142 155 158 153 151 161 152 147 145 135 116 108 108 105 95 92 92 103 109 98 89 90 97 96 113 117 95 82 87 94 103 108 106 116 119 114 117 119 130 136 137 131 134 131 132 135 147 145 144 153 160 167 173 174 168 147 123 117 93 16 4 6 2 2 0 0 0 2 0 0 0 0 0 0 0 0 0 0 0 0 0 0 0 0 0 0 0 0 0 0 0 0 0 0 0 0 0 0 0
0 0 0 0 0 0 0 0 0 0 0 5 8 4 5 9 36 117 152 151 159 175 175 169 166 162 157 152 135 130 143 153 158 153 160 157 156 152 138 116 107 112 111 103 96 99 111 107 104 94 92 99 101 115 114 98 85 82 86 97 105 102 103 115 113 118 123 129 133 129 128 128 122 133 139 141 136 139 141 145 157 171 157 138 114 121 121 63 8 4 5 2 2 0 0 0 2 0 0 0 0 0 0 0 0 0 0 0 0 0 0 0 0 0 0 0 0 0 0 0 0 0 0 0 0 0 0 0
0 0 0 0 0 0 0 0 0 0 0 5 5 5 4 8 21 93 147 146 149 158 161 148 165 170 162 153 142 134 130 137 143 150 154 156 151 146 133 122 112 110 112 112 100 100 111 102 97 100 100 96 89 108 117 108 87 87 92 96 106 112 112 109 99 99 114 127 131 135 134 123 128 143 146 141 137 144 137 142 150 158 132 121 121 126 110 31 5 3 5 4 2 0 0 0 2 0 0 0 0 0 0 0 0 0 0 0 0 0 0 0 0 0 0 0 0 0 0 0 0 0 0 0 0 0 0 0
0 0 0 0 0 0 0 0 0 0 0 4 4 4 3 7 16 62 136 146 144 140 151 150 142 149 152 149 143 147 135 129 136 140 138 141 138 136 130 123 106 107 106 101 102 104 115 100 105 116 113 105 96 104 121 121 95 97 100 97 107 117 121 125 109 90 94 105 111 118 123 122 126 143 147 150 147 143 140 144 132 136 133 117 115 120 78 14 6 3 5 3 3 1 0 0 2 0 0 0 0 0 0 0 0 0 0 0 0 0 0 0 0 0 0 0 0 0 0 0 0 0 0 0 0 0 0 0
0 0 0 0 0 0 0 0 0 0 0 3 4 2 4 8 15 33 115 136 131 134 142 147 144 141 137 132 134 148 152 135 125 124 138 141 136 129 127 110 95 93 101 109 105 109 126 108 119 121 121 114 104 104 128 127 107 102 104 108 108 123 124 126 119 95 89 92 99 107 109 127 140 138 144 155 157 153 152 148 140 136 119 99 105 114 43 9 4 4 3 1 3 1 0 0 2 0 0 0 0 0 0 0 0 0 0 0 0 0 0 0 0 0 0 0 0 0 0 0 0 0 0 0 0 0 0 0
0 0 0 0 0 0 0 0 0 0 0 2 4 3 2 9 14 17 82 122 120 129 137 145 138 137 134 129 134 148 154 142 124 118 133 144 142 137 118 96 85 97 104 109 112 116 126 121 120 121 130 131 119 115 139 132 115 107 113 119 114 124 124 125 121 108 92 86 95 111 119 136 133 128 138 151 156 161 176 165 146 123 103 86 95 87 20 11 5 6 3 1 2 2 0 0 2 0 0 0 0 0 0 0 0 0 0 0 0 0 0 0 0 0 0 0 0 0 0 0 0 0 0 0 0 0 0 0
0 0 0 0 0 0 0 0 0 0 0 1 3 3 2 5 12 13 46 118 129 123 139 151 150 140 140 136 144 150 149 134 120 117 117 122 124 120 109 99 90 98 103 110 120 127 127 127 132 137 141 143 149 151 150 138 133 140 131 129 129 137 139 135 127 110 93 90 102 124 120 117 128 124 135 148 158 170 184 173 136 114 94 91 101 57 12 12 7 6 3 1 2 1 0 0 1 0 0 0 0 0 0 0 0 0 0 0 0 0 0 0 0 0 0 0 0 0 0 0 0 0 0 0 0 0 0 0
0 0 0 0 0 0 0 0 0 0 0 1 4 2 2 5 10 12 25 102 124 111 125 133 158 157 152 144 152 153 152 141 132 128 114 114 108 98 93 106 106 109 110 115 130 143 140 139 149 152 149 154 163 170 172 166 161 157 144 144 151 162 165 155 137 125 119 116 124 127 112 113 128 124 124 146 159 177 173 163 131 102 84 84 96 31 10 11 6 6 4 2 3 1 0 0 1 0 0 0 0 0 0 0 0 0 0 0 0 0 0 0 0 0 0 0 0 0 0 0 0 0 0 0 0 0 0 0
0 0 0 0 0 0 0 0 0 0 0 1 4 2 2 4 11 11 14 68 118 117 112 122 151 164 163 156 152 147 150 147 131 129 122 120 112 102 102 110 137 135 129 131 138 148 151 151 156 150 146 146 146 150 156 159 157 149 137 139 148 162 168 168 153 144 142 139 145 117 102 107 119 123 113 138 159 179 161 150 130 114 93 97 80 18 8 9 5 5 4 2 2 1 1 0 1 0 0 0 0 0 0 0 0 0 0 0 0 0 0 0 0 0 0 0 0 0 0 0 0 0 0 0 0 0 0 0
0 0 0 0 0 0 0 0 0 0 1 3 5 3 2 4 8 8 11 39 94 111 113 120 137 157 163 166 151 147 143 147 138 129 118 119 118 121 125 130 139 155 155 149 154 154 153 161 156 153 145 149 146 150 149 152 151 149 138 140 144 159 171 169 173 168 156 157 147 113 101 101 109 119 123 142 162 176 156 132 115 103 104 97 66 15 8 7 5 4 2 1 2 1 1 0 1 0 0 0 0 0 0 0 0 0 0 0 0 0 0 0 0 0 0 0 0 0 0 0 0 0 0 0 0 0 0 0
0 0 0 0 0 0 0 0 0 0 0 4 12 9 3 4 7 8 10 28 82 113 120 114 118 137 158 163 153 140 140 140 134 121 111 110 111 113 119 128 138 153 162 164 163 162 163 161 153 151 151 159 160 160 154 147 153 155 140 138 143 151 162 167 172 166 154 156 146 111 89 96 113 128 146 158 165 169 153 127 97 86 96 98 58 15 7 4 5 4 2 2 2 1 1 0 1 0 0 0 0 0 0 0 0 0 0 0 0 0 0 0 0 0 0 0 0 0 0 0 0 0 0 0 0 0 0 0
0 0 0 0 0 0 0 0 0 0 0 3 11 12 9 6 7 10 12 20 66 101 117 115 113 114 143 155 162 138 132 133 133 109 99 104 107 115 120 123 129 143 160 164 162 165 170 162 156 158 161 167 166 165 158 135 139 148 134 127 136 148 149 167 177 173 166 160 145 107 91 97 110 123 160 176 180 177 153 106 87 86 99 94 40 15 5 3 4 4 2 3 2 2 1 0 1 0 0 0 0 0 0 0 0 0 0 0 0 0 0 0 0 0 0 0 0 0 0 0 0 0 0 0 0 0 0 0
0 0 0 0 0 0 0 0 0 0 0 3 10 10 8 7 8 12 15 15 34 87 116 117 100 109 132 150 165 149 137 131 133 113 94 101 108 111 112 113 116 140 162 164 159 158 161 152 151 156 162 171 166 165 145 119 121 132 133 125 134 150 151 172 181 176 168 160 144 113 96 97 107 133 164 168 177 162 142 94 80 81 81 66 19 14 7 4 4 5 4 5 6 4 3 0 1 0 0 0 0 0 0 0 0 0 0 0 0 0 0 0 0 0 0 0 0 0 0 0 0 0 0 0 0 0 0 0
0 0 0 0 0 0 0 0 0 0 0 2 10 10 8 9 9 9 13 15 17 50 107 107 106 106 120 148 166 167 155 140 129 122 102 93 94 95 98 106 124 144 158 159 155 149 154 149 148 141 155 157 146 163 156 132 127 132 130 123 143 159 155 177 181 178 168 168 164 125 119 116 135 148 149 149 126 105 104 71 58 81 92 36 11 8 8 6 4 4 5 6 11 6 2 0 1 0 0 0 0 0 0 0 0 0 0 0 0 0 0 0 0 0 0 0 0 0 0 0 0 0 0 0 0 0 0 0
0 0 0 0 0 0 0 0 0 0 0 0 9 10 6 5 5 5 9 14 20 27 69 97 95 89 112 146 154 169 166 152 136 133 118 102 102 105 111 132 139 165 181 175 169 164 160 170 174 170 170 162 164 185 187 171 158 160 160 156 164 165 181 182 179 179 170 182 162 162 133 143 144 142 116 96 90 86 91 74 92 96 52 16 9 1 1 3 4 4 3 5 7 4 0 0 0 0 0 0 0 0 0 0 0 0 0 0 0 0 0 0 0 0 0 0 0 0 0 0 0 0 0 0 0 0 0 0
0 0 0 0 0 0 0 0 0 0 0 0 2 6 4 2 2 2 5 10 17 20 35 80 84 76 94 106 101 145 150 151 145 143 134 118 122 127 135 133 162 183 180 180 186 190 176 191 189 183 180 183 183 181 181 178 173 167 175 185 194 194 202 201 202 211 185 186 145 138 146 138 104 81 71 82 80 81 81 72 68 44 28 20 12 1 0 0 1 2 4 7 6 0 0 0 0 0 0 0 0 0 0 0 0 0 0 0 0 0 0 0 0 0 0 0 0 0 0 0 0 0 0 0 0 0 0 0
0 0 0 0 0 0 0 0 0 0 0 0 0 3 2 1 1 0 0 7 13 21 24 44 81 85 66 58 65 77 93 107 131 137 132 128 118 129 150 172 182 184 178 198 187 196 192 196 181 173 160 171 168 162 156 157 163 151 152 172 173 187 197 173 174 184 180 157 163 142 124 105 88 77 75 93 94 91 69 46 39 37 35 25 18 0 0 0 0 1 2 6 6 0 0 0 0 0 0 0 0 0 0 0 0 0 0 0 0 0 0 0 0 0 0 0 0 0 0 0 0 0 0 0 0 0 0 0
0 0 0 0 0 0 0 0 0 0 0 0 0 1 4 4 3 2 2 3 9 13 18 21 36 50 35 44 66 66 64 62 83 86 81 91 84 74 79 79 95 121 143 153 143 142 136 119 133 107 93 105 117 117 112 110 94 87 102 105 99 110 94 142 141 157 124 79 65 65 56 62 60 56 57 79 81 81 48 29 28 25 19 6 3 0 3 3 1 1 1 7 4 0 0 0 0 0 0 0 0 0 0 0 0 0 0 0 0 0 0 0 0 0 0 0 0 0 0 0 0 0 0 0 0 0 0 0
0 0 0 0 0 0 0 0 0 0 0 0 0 0 2 2 2 2 2 0 5 9 13 15 21 22 22 34 67 67 61 61 65 64 60 64 70 62 69 71 83 85 77 76 90 99 82 72 78 81 62 75 95 95 96 97 75 62 76 78 85 100 86 76 73 94 95 97 110 105 65 62 64 58 56 77 83 81 46 28 27 24 15 5 2 0 1 1 1 1 2 4 1 0 0 0 0 0 0 0 0 0 0 0 0 0 0 0 0 0 0 0 0 0 0 0 0 0 0 0 0 0 0 0 0 0 0 0
0 0 0 0 0 0 0 0 0 0 0 0 0 0 0 0 0 0 0 0 3 8 9 15 20 25 27 36 70 76 65 64 71 69 62 62 73 93 116 125 139 140 107 97 103 109 101 102 109 91 76 90 100 100 99 95 86 74 91 106 107 116 100 92 119 147 110 68 97 86 84 83 78 70 75 87 91 84 47 32 27 22 13 8 1 0 0 0 0 0 1 0 0 0 0 0 0 0 0 0 0 0 0 0 0 0 0 0 0 0 0 0 0 0 0 0 0 0 0 0 0 0 0 0 0 0 0 0
0 0 0 0 0 0 0 0 0 0 0 0 0 0 0 0 0 0 0 0 0 3 4 7 15 28 32 38 72 84 77 68 80 85 83 82 85 116 120 151 164 180 154 142 146 166 163 161 145 121 114 123 123 124 120 118 115 108 118 135 143 149 137 145 157 162 123 115 112 131 105 109 98 86 84 83 84 81 52 40 26 18 11 9 0 0 0 0 0 0 0 0 0 0 0 0 0 0 0 0 0 0 0 0 0 0 0 0 0 0 0 0 0 0 0 0 0 0 0 0 0 0 0 0 0 0 0 0
0 0 0 0 0 0 0 0 0 0 0 0 0 0 0 0 0 0 0 0 0 1 3 4 8 24 30 35 59 72 66 65 75 83 89 82 85 111 128 121 174 174 167 162 172 180 184 179 161 164 164 156 153 158 161 157 155 152 148 151 150 170 173 162 172 150 152 107 143 145 119 125 90 63 50 61 73 55 32 19 10 7 4 1 0 0 0 0 0 0 0 0 0 0 0 0 0 0 0 0 0 0 0 0 0 0 0 0 0 0 0 0 0 0 0 0 0 0 0 0 0 0 0 0 0 0 0 0
0 0 0 0 0 0 0 0 0 0 0 0 0 0 0 0 0 0 0 0 0 0 1 3 7 16 27 36 54 75 78 69 77 77 80 69 61 81 106 101 129 121 121 105 123 138 144 167 159 150 143 134 137 133 134 127 135 129 126 124 138 143 126 128 127 131 143 141 150 142 107 62 45 44 53 77 74 43 22 17 9 7 5 0 0 1 1 1 0 0 0 0 1 1 2 1 4 0 0 0 0 0 0 0 0 0 0 0 0 0 0 0 0 0 0 0 0 0 0 0 0 0 0 0 0 0 0 0
0 0 0 0 0 0 0 0 0 0 0 0 0 0 0 0 0 0 0 0 0 0 3 6 9 14 19 21 32 53 70 65 67 65 58 58 56 67 83 110 112 113 110 91 96 118 132 129 121 116 113 94 109 103 105 92 103 104 104 105 118 127 118 96 114 123 126 111 129 116 98 64 50 58 69 99 87 46 23 16 17 12 6 0 0 0 0 0 0 0 0 0 0 0 1 0 1 0 0 0 0 0 0 0 0 0 0 0 0 0 0 0 0 0 0 0 0 0 0 0 0 0 0 0 0 0 0 0
0 0 0 0 0 0 0 0 0 0 0 0 0 0 0 0 0 0 0 0 0 0 1 6 8 12 18 20 25 44 63 75 74 69 58 52 56 70 84 101 99 102 102 103 110 122 128 121 118 112 105 87 95 95 98 93 108 116 118 111 110 117 104 84 82 107 125 127 128 108 94 68 54 63 81 106 88 49 24 18 17 11 6 0 0 0 0 0 0 0 0 0 0 0 1 0 1 0 0 0 0 0 0 0 0 0 0 0 0 0 0 0 0 0 0 0 0 0 0 0 0 0 0 0 0 0 0 0
0 0 0 0 0 0 0 0 0 0 0 0 0 0 0 0 0 0 0 0 0 0 0 4 7 10 15 21 23 39 56 76 77 71 62 51 46 56 71 96 92 85 90 92 103 112 118 126 125 118 110 95 100 98 100 96 107 106 120 123 117 125 123 108 103 97 111 116 106 93 78 60 53 68 92 110 85 50 24 19 16 10 5 0 0 0 0 0 0 0 0 0 0 0 1 0 0 0 0 0 0 0 0 0 0 0 0 0 0 0 0 0 0 0 0 0 0 0 0 0 0 0 0 0 0 0 0 0
0 0 0 0 0 0 0 0 0 0 0 0 0 0 0 0 0 0 0 0 0 0 0 2 6 9 12 18 22 34 49 72 77 73 66 54 47 54 60 66 70 78 90 91 99 109 114 118 135 129 117 100 102 103 97 95 100 98 111 122 126 145 132 111 101 93 100 108 107 96 79 62 52 65 99 112 81 51 26 18 15 10 3 0 0 0 0 0 0 0 0 0 0 0 1 0 0 0 0 0 0 0 0 0 0 0 0 0 0 0 0 0 0 0 0 0 0 0 0 0 0 0 0 0 0 0 0 0
0 0 0 0 0 0 0 0 0 0 0 0 0 0 0 0 0 0 0 0 0 0 0 0 4 7 10 15 20 28 44 63 81 77 69 60 54 55 52 58 64 75 88 89 102 106 106 114 127 117 113 104 98 99 91 91 94 94 107 114 118 123 120 107 102 102 97 96 96 93 81 73 61 64 98 109 81 51 26 17 14 8 1 0 0 0 0 1 0 0 0 0 0 0 1 0 0 0 0 0 0 0 0 0 0 0 0 0 0 0 0 0 0 0 0 0 0 0 0 0 0 0 0 0 0 0 0 0
0 0 0 0 0 0 0 0 0 0 0 0 0 0 0 0 0 0 0 0 0 0 0 0 1 4 9 12 17 24 43 55 78 76 74 69 63 57 53 57 63 72 84 95 107 104 97 98 103 104 112 107 99 96 91 88 90 97 110 108 113 107 111 104 105 109 102 90 80 73 68 72 72 74 98 105 80 45 19 15 15 7 1 0 0 0 0 0 0 0 0 0 0 0 1 0 0 0 0 0 0 0 0 0 0 0 0 0 0 0 0 0 0 0 0 0 0 0 0 0 0 0 0 0 0 0 0 0
0 0 0 0 0 0 0 0 0 0 0 0 0 0 0 0 0 0 0 0 0 0 0 0 0 3 6 11 14 19 32 50 65 71 78 76 68 61 54 52 58 69 84 93 99 99 96 88 85 92 106 103 96 93 92 95 96 103 102 104 111 103 102 97 95 99 96 84 74 64 59 72 82 83 101 87 46 22 16 16 15 7 0 0 0 0 0 0 0 0 0 0 0 0 1 0 0 0 0 0 0 0 0 0 0 0 0 0 0 0 0 0 0 0 0 0 0 0 0 0 0 0 0 0 0 0 0 0
0 0 0 0 0 0 0 0 0 0 0 0 0 0 0 0 0 0 0 0 0 0 0 0 0 3 4 8 14 17 20 32 40 45 75 81 69 64 57 50 54 66 78 82 89 92 93 87 83 91 108 106 99 98 100 99 101 104 101 98 100 93 97 95 92 89 87 78 73 62 59 73 82 92 102 44 17 16 17 17 16 7 0 0 0 0 0 0 0 0 0 0 0 0 1 0 0 0 0 0 0 0 0 0 0 0 0 0 0 0 0 0 0 0 0 0 0 0 0 0 0 0 0 0 0 0 0 0
0 0 0 0 0 0 0 0 0 0 0 0 0 0 0 0 0 0 0 0 0 0 0 0 0 0 4 4 11 17 18 19 18 15 30 75 75 73 68 61 57 61 71 73 76 77 85 88 87 93 94 96 96 94 89 93 106 106 96 90 94 94 100 94 87 83 72 73 71 66 71 84 86 92 72 24 15 15 16 17 13 6 0 0 0 0 0 0 0 0 0 0 0 0 1 0 0 0 0 0 0 0 0 0 0 0 0 0 0 0 0 0 0 0 0 0 0 0 0 0 0 0 0 0 0 0 0 0
0 0 0 0 0 0 0 0 0 0 0 0 0 0 0 0 0 0 0 0 0 0 0 0 0 0 1 4 8 13 17 18 17 16 11 38 76 83 79 68 62 65 71 74 75 72 79 87 96 100 89 92 97 97 93 95 106 108 97 87 93 95 104 99 90 80 78 84 76 72 81 94 93 76 36 20 13 14 16 16 11 5 0 0 0 0 0 0 0 0 0 0 0 0 1 0 0 0 0 0 0 0 0 0 0 0 0 0 0 0 0 0 0 0 0 0 0 0 0 0 0 0 0 0 0 0 0 0
0 0 0 0 0 0 0 0 0 0 0 0 0 0 0 0 0 0 0 0 0 0 0 0 0 0 0 3 6 9 15 17 16 16 12 12 35 72 84 77 69 72 80 82 83 83 87 91 94 98 92 97 99 97 96 106 114 113 109 99 100 106 106 100 93 84 82 92 90 85 89 96 75 37 23 17 12 14 16 14 10 5 1 0 0 0 0 0 0 0 0 0 0 0 1 0 0 0 0 0 0 0 0 0 0 0 0 0 0 0 0 0 0 0 0 0 0 0 0 0 0 0 0 0 0 0 0 0
0 0 0 0 0 0 0 0 0 0 0 0 0 0 0 0 0 0 0 0 0 0 0 0 0 0 0 2 4 7 11 16 17 16 12 12 15 31 62 77 78 88 92 87 91 97 94 93 88 98 99 96 98 97 99 112 115 111 112 105 93 96 104 104 99 94 95 103 103 93 89 71 34 25 22 15 13 15 15 13 9 5 0 0 0 0 0 0 0 0 0 0 0 0 1 0 0 0 0 0 0 0 0 0 0 0 0 0 0 0 0 0 0 0 0 0 0 0 0 0 0 0 0 0 0 0 0 0
0 0 0 0 0 0 0 0 0 0 0 0 0 0 0 0 0 0 0 0 0 0 0 0 0 0 0 0 4 6 8 14 16 17 14 11 15 21 30 53 75 90 98 97 99 107 104 98 95 102 97 95 96 104 110 117 117 111 115 116 104 96 108 108 109 106 104 108 103 87 63 35 27 25 21 15 13 14 14 12 9 5 0 0 0 0 0 0 0 0 0 0 0 0 1 0 0 0 0 0 0 0 0 0 0 0 0 0 0 0 0 0 0 0 0 0 0 0 0 0 0 0 0 0 0 0 0 0
0 0 0 0 0 0 0 0 0 0 0 0 0 0 0 0 0 0 0 0 0 0 0 0 0 0 0 0 1 7 7 12 15 16 15 11 12 20 25 27 37 59 82 93 105 112 108 104 101 103 105 105 107 108 104 107 108 110 115 119 114 101 109 115 114 109 108 102 79 48 31 28 26 24 20 16 12 14 13 11 8 4 0 0 0 0 0 0 0 0 0 0 0 0 1 0 0 0 0 0 0 0 0 0 0 0 0 0 0 0 0 0 0 0 0 0 0 0 0 0 0 0 0 0 0 0 0 0
0 0 0 0 0 0 0 0 0 0 0 0 0 0 0 0 0 0 0 0 0 0 0 0 0 0 0 0 0 6 5 10 13 16 14 12 11 19 25 28 30 33 41 61 88 97 100 100 97 102 112 112 107 104 102 103 102 107 115 110 113 113 115 114 109 101 88 62 41 37 29 27 25 23 18 15 12 14 13 11 8 3 0 0 0 0 0 0 0 0 0 0 0 0 1 0 0 0 0 0 0 0 0 0 0 0 0 0 0 0 0 0 0 0 0 0 0 0 0 0 0 0 0 0 0 0 0 0
0 0 0 0 0 0 0 0 0 0 0 0 0 0 0 0 0 0 0 0 0 0 0 0 0 0 0 0 0 4 6 8 12 15 15 13 12 18 25 27 30 33 31 37 50 68 78 87 91 93 102 104 100 102 106 107 106 106 115 112 116 107 107 102 88 68 54 48 41 36 27 27 25 23 17 13 14 13 13 12 8 3 0 0 0 0 0 0 0 0 0 0 0 0 1 0 0 0 0 0 0 0 0 0 0 0 0 0 0 0 0 0 0 0 0 0 0 0 0 0 0 0 0 0 0 0 0 0
